<mxfile host="app.diagrams.net" agent="Mozilla/5.0 (X11; Linux x86_64) AppleWebKit/537.36 (KHTML, like Gecko) Chrome/131.0.0.0 Safari/537.36" version="25.0.3">
  <diagram name="Halaman-1" id="q7tM2C_Jyh0czKtBBGvA">
    <mxGraphModel dx="880" dy="471" grid="1" gridSize="10" guides="1" tooltips="1" connect="1" arrows="1" fold="1" page="1" pageScale="1" pageWidth="827" pageHeight="1169" math="0" shadow="0">
      <root>
        <mxCell id="0" />
        <mxCell id="1" parent="0" />
        <mxCell id="cIElcQdMbaSdOkzjpbTx-10" value="Sorb" style="rounded=0;whiteSpace=wrap;html=1;fillColor=none;dashed=1;labelPosition=center;verticalLabelPosition=top;align=center;verticalAlign=bottom;" vertex="1" parent="1">
          <mxGeometry x="220" y="120" width="340" height="200" as="geometry" />
        </mxCell>
        <mxCell id="cIElcQdMbaSdOkzjpbTx-3" value="" style="edgeStyle=orthogonalEdgeStyle;rounded=0;orthogonalLoop=1;jettySize=auto;html=1;" edge="1" parent="1" source="cIElcQdMbaSdOkzjpbTx-1" target="cIElcQdMbaSdOkzjpbTx-2">
          <mxGeometry relative="1" as="geometry" />
        </mxCell>
        <mxCell id="cIElcQdMbaSdOkzjpbTx-1" value="Card Added" style="rounded=1;whiteSpace=wrap;html=1;" vertex="1" parent="1">
          <mxGeometry x="80" y="140" width="120" height="60" as="geometry" />
        </mxCell>
        <mxCell id="cIElcQdMbaSdOkzjpbTx-5" value="" style="edgeStyle=orthogonalEdgeStyle;rounded=0;orthogonalLoop=1;jettySize=auto;html=1;" edge="1" parent="1" source="cIElcQdMbaSdOkzjpbTx-2" target="cIElcQdMbaSdOkzjpbTx-4">
          <mxGeometry relative="1" as="geometry" />
        </mxCell>
        <mxCell id="cIElcQdMbaSdOkzjpbTx-2" value="First Card Review" style="whiteSpace=wrap;html=1;rounded=1;" vertex="1" parent="1">
          <mxGeometry x="240" y="140" width="120" height="60" as="geometry" />
        </mxCell>
        <mxCell id="cIElcQdMbaSdOkzjpbTx-7" value="" style="edgeStyle=orthogonalEdgeStyle;rounded=0;orthogonalLoop=1;jettySize=auto;html=1;" edge="1" parent="1" source="cIElcQdMbaSdOkzjpbTx-4" target="cIElcQdMbaSdOkzjpbTx-6">
          <mxGeometry relative="1" as="geometry" />
        </mxCell>
        <mxCell id="cIElcQdMbaSdOkzjpbTx-4" value="Update Review Time" style="whiteSpace=wrap;html=1;rounded=1;" vertex="1" parent="1">
          <mxGeometry x="400" y="140" width="120" height="60" as="geometry" />
        </mxCell>
        <mxCell id="cIElcQdMbaSdOkzjpbTx-8" style="edgeStyle=orthogonalEdgeStyle;rounded=0;orthogonalLoop=1;jettySize=auto;html=1;exitX=1;exitY=0.5;exitDx=0;exitDy=0;entryX=1;entryY=0.5;entryDx=0;entryDy=0;" edge="1" parent="1" source="cIElcQdMbaSdOkzjpbTx-6" target="cIElcQdMbaSdOkzjpbTx-4">
          <mxGeometry relative="1" as="geometry">
            <Array as="points">
              <mxPoint x="540" y="270" />
              <mxPoint x="540" y="170" />
            </Array>
          </mxGeometry>
        </mxCell>
        <mxCell id="cIElcQdMbaSdOkzjpbTx-6" value="Another Card Review" style="whiteSpace=wrap;html=1;rounded=1;" vertex="1" parent="1">
          <mxGeometry x="400" y="240" width="120" height="60" as="geometry" />
        </mxCell>
        <mxCell id="cIElcQdMbaSdOkzjpbTx-11" value="Mine" style="rounded=0;whiteSpace=wrap;html=1;fillColor=none;dashed=1;labelPosition=center;verticalLabelPosition=top;align=center;verticalAlign=bottom;" vertex="1" parent="1">
          <mxGeometry x="60" y="120" width="160" height="200" as="geometry" />
        </mxCell>
      </root>
    </mxGraphModel>
  </diagram>
</mxfile>
